# xmcd
#
# Track frame offsets: 
#        150
#        40589
#        64081
#        94298
#        112961
#        136736
#        158989
#        196948
#        227712
#        240643
#
# Disc length: 3486 seconds
#
# Revision: 4
# Processed by: cddbd v1.5.2PL0 Copyright (c) Steve Scherf et al.
# Submitted via: ExactAudioCopy v0.95b4
#
DISCID=7b0d9c0a
DTITLE=Markus Stockhausen, Ferenc Snétberger, Arild Andersen, Patrice 
DTITLE=Heral - Joyosa
DYEAR=2004
DGENRE=Jazz
TTITLE0=Gio
TTITLE1=Basswave
TTITLE2=Madhawi
TTITLE3=Gommé
TTITLE4=Joyosa
TTITLE5=Mona
TTITLE6=Freund
TTITLE7=Our Father
TTITLE8=Jasmin
TTITLE9=The Waltz
EXTD=YEAR: 2004
EXTT0=
EXTT1=
EXTT2=
EXTT3=
EXTT4=
EXTT5=
EXTT6=
EXTT7=
EXTT8=
EXTT9=
PLAYORDER=
